<mxfile host="65bd71144e">
    <diagram id="ntdd7PDlJM55NbzxC3HV" name="Page-1">
        <mxGraphModel dx="1387" dy="817" grid="0" gridSize="10" guides="1" tooltips="1" connect="1" arrows="1" fold="1" page="0" pageScale="1" pageWidth="1100" pageHeight="1700" math="0" shadow="1">
            <root>
                <mxCell id="0"/>
                <mxCell id="1" parent="0"/>
                <mxCell id="2" value="&lt;span&gt;     Top Goal&lt;br&gt;&lt;/span&gt;&lt;span&gt;&lt;br&gt;Ensure Safe &amp;amp; Energy&amp;nbsp;&lt;br&gt;&lt;/span&gt;&lt;span&gt;Efficient House Operations  &lt;/span&gt;" style="rounded=0;whiteSpace=wrap;html=1;" vertex="1" parent="1">
                    <mxGeometry x="334" y="80" width="210" height="70" as="geometry"/>
                </mxCell>
                <mxCell id="3" value="Overall Strategy&lt;br&gt;&lt;br&gt;Develop House Control System" style="rounded=0;whiteSpace=wrap;html=1;" vertex="1" parent="1">
                    <mxGeometry x="334" y="180" width="210" height="70" as="geometry"/>
                </mxCell>
                <mxCell id="5" value="SubG1&lt;br&gt;&lt;br&gt;Temperature Range&lt;br&gt;17C - 19C" style="whiteSpace=wrap;html=1;aspect=fixed;" vertex="1" parent="1">
                    <mxGeometry x="120" y="320" width="120" height="120" as="geometry"/>
                </mxCell>
                <mxCell id="6" value="SubG2&lt;br&gt;&lt;br&gt;No Open Windows When Heat is On" style="whiteSpace=wrap;html=1;aspect=fixed;" vertex="1" parent="1">
                    <mxGeometry x="250" y="320" width="120" height="120" as="geometry"/>
                </mxCell>
                <mxCell id="7" value="SubG3&lt;br&gt;&lt;br&gt;Safe CO Levels" style="whiteSpace=wrap;html=1;aspect=fixed;" vertex="1" parent="1">
                    <mxGeometry x="380" y="320" width="120" height="120" as="geometry"/>
                </mxCell>
                <mxCell id="8" value="SubG4&lt;br&gt;&lt;br&gt;No Open Fride/Oven Doors" style="whiteSpace=wrap;html=1;aspect=fixed;" vertex="1" parent="1">
                    <mxGeometry x="510" y="320" width="120" height="120" as="geometry"/>
                </mxCell>
                <mxCell id="9" value="Solution 1&lt;br&gt;&lt;br&gt;Monitor &lt;br&gt;Temperature" style="whiteSpace=wrap;html=1;aspect=fixed;" vertex="1" parent="1">
                    <mxGeometry x="640" y="320" width="120" height="120" as="geometry"/>
                </mxCell>
                <mxCell id="12" value="" style="endArrow=none;html=1;" edge="1" parent="1">
                    <mxGeometry width="50" height="50" relative="1" as="geometry">
                        <mxPoint x="180" y="280" as="sourcePoint"/>
                        <mxPoint x="700" y="280" as="targetPoint"/>
                    </mxGeometry>
                </mxCell>
                <mxCell id="14" value="" style="endArrow=none;html=1;exitX=0.5;exitY=0;exitDx=0;exitDy=0;" edge="1" parent="1" source="5">
                    <mxGeometry width="50" height="50" relative="1" as="geometry">
                        <mxPoint x="130" y="330" as="sourcePoint"/>
                        <mxPoint x="180" y="280" as="targetPoint"/>
                    </mxGeometry>
                </mxCell>
                <mxCell id="15" value="" style="endArrow=none;html=1;exitX=0.5;exitY=0;exitDx=0;exitDy=0;" edge="1" parent="1">
                    <mxGeometry width="50" height="50" relative="1" as="geometry">
                        <mxPoint x="699.62" y="320" as="sourcePoint"/>
                        <mxPoint x="699.62" y="280" as="targetPoint"/>
                    </mxGeometry>
                </mxCell>
                <mxCell id="16" value="" style="endArrow=none;html=1;exitX=0.5;exitY=0;exitDx=0;exitDy=0;" edge="1" parent="1">
                    <mxGeometry width="50" height="50" relative="1" as="geometry">
                        <mxPoint x="569.6199999999999" y="320" as="sourcePoint"/>
                        <mxPoint x="569.6199999999999" y="280" as="targetPoint"/>
                    </mxGeometry>
                </mxCell>
                <mxCell id="17" value="" style="endArrow=none;html=1;exitX=0.5;exitY=0;exitDx=0;exitDy=0;" edge="1" parent="1">
                    <mxGeometry width="50" height="50" relative="1" as="geometry">
                        <mxPoint x="439.6199999999999" y="320" as="sourcePoint"/>
                        <mxPoint x="439.6199999999999" y="280" as="targetPoint"/>
                    </mxGeometry>
                </mxCell>
                <mxCell id="18" value="" style="endArrow=none;html=1;exitX=0.5;exitY=0;exitDx=0;exitDy=0;" edge="1" parent="1">
                    <mxGeometry width="50" height="50" relative="1" as="geometry">
                        <mxPoint x="309.6199999999999" y="320" as="sourcePoint"/>
                        <mxPoint x="309.6199999999999" y="280" as="targetPoint"/>
                    </mxGeometry>
                </mxCell>
                <mxCell id="19" value="" style="endArrow=none;html=1;" edge="1" parent="1">
                    <mxGeometry width="50" height="50" relative="1" as="geometry">
                        <mxPoint x="439.62" y="280" as="sourcePoint"/>
                        <mxPoint x="439.6199999999999" y="250" as="targetPoint"/>
                    </mxGeometry>
                </mxCell>
                <mxCell id="20" value="" style="endArrow=none;html=1;exitX=0.5;exitY=0;exitDx=0;exitDy=0;" edge="1" parent="1">
                    <mxGeometry width="50" height="50" relative="1" as="geometry">
                        <mxPoint x="438.5799999999999" y="180" as="sourcePoint"/>
                        <mxPoint x="439" y="150" as="targetPoint"/>
                    </mxGeometry>
                </mxCell>
                <mxCell id="22" value="" style="endArrow=none;html=1;" edge="1" parent="1">
                    <mxGeometry width="50" height="50" relative="1" as="geometry">
                        <mxPoint x="179.74" y="480" as="sourcePoint"/>
                        <mxPoint x="699.74" y="480" as="targetPoint"/>
                    </mxGeometry>
                </mxCell>
                <mxCell id="24" value="" style="endArrow=none;html=1;exitX=0.5;exitY=0;exitDx=0;exitDy=0;" edge="1" parent="1">
                    <mxGeometry width="50" height="50" relative="1" as="geometry">
                        <mxPoint x="699.7099999999999" y="480" as="sourcePoint"/>
                        <mxPoint x="699.7099999999999" y="440" as="targetPoint"/>
                    </mxGeometry>
                </mxCell>
                <mxCell id="25" value="" style="endArrow=none;html=1;exitX=0.5;exitY=0;exitDx=0;exitDy=0;" edge="1" parent="1">
                    <mxGeometry width="50" height="50" relative="1" as="geometry">
                        <mxPoint x="569.7099999999999" y="480" as="sourcePoint"/>
                        <mxPoint x="569.7099999999999" y="440" as="targetPoint"/>
                    </mxGeometry>
                </mxCell>
                <mxCell id="26" value="" style="endArrow=none;html=1;exitX=0.5;exitY=0;exitDx=0;exitDy=0;" edge="1" parent="1">
                    <mxGeometry width="50" height="50" relative="1" as="geometry">
                        <mxPoint x="439.7099999999999" y="480" as="sourcePoint"/>
                        <mxPoint x="439.7099999999999" y="440" as="targetPoint"/>
                    </mxGeometry>
                </mxCell>
                <mxCell id="28" value="" style="endArrow=none;html=1;exitX=0.5;exitY=0;exitDx=0;exitDy=0;" edge="1" parent="1">
                    <mxGeometry width="50" height="50" relative="1" as="geometry">
                        <mxPoint x="309.7899999999999" y="480" as="sourcePoint"/>
                        <mxPoint x="309.7899999999999" y="440" as="targetPoint"/>
                    </mxGeometry>
                </mxCell>
                <mxCell id="29" value="" style="endArrow=none;html=1;exitX=0.5;exitY=0;exitDx=0;exitDy=0;" edge="1" parent="1">
                    <mxGeometry width="50" height="50" relative="1" as="geometry">
                        <mxPoint x="179.70999999999998" y="480" as="sourcePoint"/>
                        <mxPoint x="179.70999999999998" y="440" as="targetPoint"/>
                    </mxGeometry>
                </mxCell>
                <mxCell id="30" value="" style="endArrow=none;html=1;exitX=0.5;exitY=0;exitDx=0;exitDy=0;" edge="1" parent="1">
                    <mxGeometry width="50" height="50" relative="1" as="geometry">
                        <mxPoint x="439.5999999999999" y="520" as="sourcePoint"/>
                        <mxPoint x="439.5999999999999" y="480" as="targetPoint"/>
                    </mxGeometry>
                </mxCell>
                <mxCell id="31" value="&amp;nbsp;Solution2&lt;br&gt;&lt;br&gt;&amp;nbsp;Procedures to Control Doors, Windows, and Heating&amp;nbsp;&amp;nbsp;" style="rounded=0;whiteSpace=wrap;html=1;" vertex="1" parent="1">
                    <mxGeometry x="335" y="520" width="210" height="80" as="geometry"/>
                </mxCell>
                <mxCell id="32" value="&amp;nbsp;Solution3&lt;br&gt;&lt;br&gt;Monitor CO Level" style="rounded=0;whiteSpace=wrap;html=1;" vertex="1" parent="1">
                    <mxGeometry x="334" y="640" width="210" height="80" as="geometry"/>
                </mxCell>
                <mxCell id="33" value="" style="endArrow=none;html=1;exitX=0.5;exitY=0;exitDx=0;exitDy=0;" edge="1" parent="1">
                    <mxGeometry width="50" height="50" relative="1" as="geometry">
                        <mxPoint x="439.7099999999999" y="640" as="sourcePoint"/>
                        <mxPoint x="439.7099999999999" y="600" as="targetPoint"/>
                    </mxGeometry>
                </mxCell>
            </root>
        </mxGraphModel>
    </diagram>
</mxfile>